<?xml version="1.0" encoding="iso-8859-1"?>
<!-- Uploaded to: SVG Repo, www.svgrepo.com, Generator: SVG Repo Mixer Tools -->
<!DOCTYPE svg PUBLIC "-//W3C//DTD SVG 1.1//EN" "http://www.w3.org/Graphics/SVG/1.1/DTD/svg11.dtd">
<svg fill="#000000" version="1.1" id="Capa_1" xmlns="http://www.w3.org/2000/svg" xmlns:xlink="http://www.w3.org/1999/xlink" 
	 width="800px" height="800px" viewBox="0 0 31.716 31.716"
	 xml:space="preserve">
<g>
	<path d="M30.604,14.503v-3.815c0.709-0.606,1.112-1.479,1.112-2.416c0-1.322-0.832-2.52-2.069-2.98l-11.44-4.259
		c-1.549-0.577-3.275-0.574-4.821,0.007L2.062,5.294C0.829,5.757,0,6.954,0,8.271c0,1.318,0.83,2.514,2.062,2.976l4.236,1.591
		l0.005,3.199c-0.091,0.939-0.76,7.993,3.183,12.388c1.601,1.783,3.729,2.688,6.32,2.688c2.593,0,4.718-0.905,6.319-2.688
		c4.014-4.474,3.248-11.748,3.18-12.434l0.004-3.126l3.68-1.37v3.008c-0.545,0.395-0.892,1.165-0.892,2.014
		c0,1.123,0,2.284,1.697,2.284c1.698,0,1.698-1.162,1.698-2.284C31.494,15.669,31.15,14.898,30.604,14.503z M20.645,27.095
		c-1.226,1.364-2.809,2.026-4.838,2.026c-2.031,0-3.611-0.664-4.836-2.026c-2.157-2.397-2.675-5.208-2.754-7.96
		c1.834,1.184,4.739,1.792,7.587,1.792c2.853,0,5.761-0.61,7.593-1.802C23.318,21.879,22.804,24.695,20.645,27.095z M8.775,16.187
		v-2.418l4.611,1.733c1.545,0.582,3.273,0.583,4.822,0.008l4.628-1.723v2.4c0,0.774-2.737,2.256-7.03,2.256
		S8.775,16.961,8.775,16.187z M26.527,9.393l-9.547,3.554c-0.756,0.283-1.603,0.281-2.36-0.003L5.165,9.392
		c-0.084-0.031-0.19-0.068-0.307-0.107c-0.542-0.18-1.552-0.518-1.552-1.014c0-0.505,0.963-0.822,1.538-1.011
		c0.123-0.04,0.232-0.077,0.321-0.11l9.454-3.552C15,3.454,15.398,3.383,15.804,3.383c0.404,0,0.798,0.071,1.176,0.211l9.549,3.555
		c0.078,0.029,0.172,0.062,0.277,0.097c0.52,0.178,1.602,0.544,1.602,1.025C28.408,8.466,28.091,8.815,26.527,9.393z"/>
</g>
</svg>